<?xml version="1.0" standalone="no"?>
<!DOCTYPE svg PUBLIC "-//W3C//DTD SVG 20010904//EN"
 "http://www.w3.org/TR/2001/REC-SVG-20010904/DTD/svg10.dtd">
<svg version="1.0" xmlns="http://www.w3.org/2000/svg"
 width="225.000000pt" height="225.000000pt" viewBox="0 0 225.000000 225.000000"
 preserveAspectRatio="xMidYMid meet">

<g transform="translate(0.000000,225.000000) scale(0.100000,-0.100000)"
fill="#000000" stroke="none">
<path d="M415 1470 c-278 -93 -340 -463 -107 -636 184 -136 443 -72 545 135
29 59 32 74 32 156 0 82 -3 97 -32 156 -82 165 -269 246 -438 189z m374 -183
c74 -120 55 -282 -44 -381 -68 -69 -71 -67 -79 36 -8 116 -8 306 0 347 6 30 9
31 54 31 44 0 50 -3 69 -33z m-171 -284 l-3 -178 -40 -7 c-22 -4 -61 -4 -87
-1 l-48 6 0 178 0 179 90 0 90 0 -2 -177z m-228 -48 c0 -58 -4 -105 -8 -105
-20 0 -95 77 -122 124 -47 81 -44 86 50 86 l80 0 0 -105z"/>
<path d="M1501 1378 c-18 -29 -18 -33 -5 -36 16 -4 74 44 74 60 0 4 -11 8 -24
8 -16 0 -31 -11 -45 -32z"/>
<path d="M1597 1267 c-15 -79 -27 -149 -27 -156 0 -8 11 -11 28 -9 26 3 28 6
54 138 34 173 34 170 0 170 l-28 0 -27 -143z"/>
<path d="M1710 1396 c-18 -22 -5 -48 22 -44 17 2 23 10 23 28 0 29 -26 38 -45
16z"/>
<path d="M1011 1302 c-52 -26 -74 -63 -75 -123 -1 -39 3 -54 18 -65 28 -20 59
-17 90 7 l26 20 0 -20 c0 -15 6 -21 23 -21 21 0 24 8 40 102 14 81 15 103 5
110 -22 14 -92 9 -127 -10z m66 -62 c-6 -50 -31 -90 -56 -90 -44 0 -30 89 17
115 41 22 45 19 39 -25z"/>
<path d="M1175 1298 c-6 -27 -35 -188 -35 -194 0 -2 14 -4 30 -4 17 0 30 1 30
3 0 27 25 128 36 145 16 24 50 30 57 10 2 -7 -2 -44 -10 -83 -7 -38 -13 -71
-13 -72 0 -2 13 -3 29 -3 31 0 33 3 56 133 14 72 -41 110 -100 71 -23 -15 -25
-15 -25 0 0 26 -49 21 -55 -6z"/>
<path d="M1441 1302 c-47 -23 -72 -61 -78 -115 -4 -36 -1 -49 16 -66 27 -27
61 -27 95 0 l26 20 0 -20 c0 -16 6 -21 25 -21 21 0 25 5 25 29 0 16 7 62 15
102 12 58 13 74 3 81 -22 14 -92 9 -127 -10z m65 -64 c-9 -58 -32 -90 -59 -86
-59 8 -8 123 57 127 5 1 6 -18 2 -41z"/>
<path d="M1684 1283 c-3 -21 -12 -69 -20 -106 -8 -38 -14 -70 -14 -73 0 -2 14
-4 30 -4 17 0 30 1 30 3 0 1 9 49 20 107 11 58 20 106 20 107 0 2 -13 3 -30 3
-26 0 -30 -4 -36 -37z"/>
<path d="M1791 1307 c-14 -6 -29 -25 -34 -42 -9 -26 -7 -32 28 -62 48 -41 43
-69 -10 -59 -28 6 -37 3 -42 -10 -8 -20 13 -34 54 -34 45 0 84 17 90 40 6 23
23 27 23 6 0 -23 41 -46 80 -46 58 0 80 10 80 35 0 22 -3 23 -31 15 -35 -10
-79 3 -79 23 0 10 16 16 52 19 38 4 57 12 70 28 23 29 23 41 -3 74 -43 55
-139 19 -171 -64 -9 -25 -17 -40 -17 -33 -1 6 -17 21 -37 32 -30 18 -34 24
-23 37 8 10 21 13 39 9 22 -5 28 -2 33 14 2 11 2 22 -1 25 -10 11 -77 6 -101
-7z m237 -49 c4 -18 -32 -33 -65 -26 -16 3 -16 5 5 26 26 26 55 26 60 0z"/>
<path d="M1051 1059 c-27 -16 -32 -17 -28 -5 5 12 0 16 -22 16 -28 0 -29 -1
-46 -97 -9 -54 -19 -106 -22 -116 -4 -16 0 -18 29 -15 32 3 33 4 45 73 14 73
48 125 73 110 12 -8 10 -75 -6 -152 -6 -32 -5 -33 24 -33 29 0 31 3 42 58 20
103 46 143 80 122 11 -7 11 -21 2 -79 -17 -99 -16 -101 16 -101 28 0 29 2 45
90 18 99 12 134 -22 145 -24 7 -59 -2 -82 -21 -14 -12 -18 -11 -34 6 -23 25
-51 25 -94 -1z"/>
<path d="M1406 1070 c-83 -25 -135 -144 -90 -208 20 -29 76 -30 104 -2 11 11
22 20 25 20 3 0 5 -9 5 -20 0 -14 7 -20 24 -20 22 0 25 6 31 53 4 28 13 80 20
113 l12 62 -36 6 c-45 7 -58 7 -95 -4z m50 -82 c-8 -51 -36 -93 -62 -93 -21 0
-30 31 -20 71 8 30 44 64 69 64 17 0 19 -5 13 -42z"/>
<path d="M1626 1070 c-124 -38 -131 -230 -7 -230 54 0 71 8 71 34 0 19 -4 22
-30 18 -17 -2 -37 1 -45 8 -15 13 -20 56 -9 85 9 22 61 47 83 40 13 -4 20 1
24 17 10 36 -24 47 -87 28z"/>
<path d="M1809 1053 c-30 -25 -31 -26 -25 -5 6 19 4 22 -22 22 l-29 0 -16
-102 c-22 -132 -22 -128 12 -128 27 0 30 4 36 43 9 52 32 109 48 119 7 4 20 8
29 8 14 0 15 -5 7 -36 -23 -82 22 -139 104 -131 58 5 102 43 118 100 31 115
-87 180 -182 100 l-31 -27 7 32 c9 41 -11 43 -56 5z m191 -38 c16 -19 7 -81
-16 -106 -9 -11 -27 -19 -39 -19 -39 0 -47 55 -15 108 21 34 50 41 70 17z"/>
</g>
</svg>
