<?xml version="1.0" standalone="no"?>
<!DOCTYPE svg PUBLIC "-//W3C//DTD SVG 20010904//EN"
 "http://www.w3.org/TR/2001/REC-SVG-20010904/DTD/svg10.dtd">
<svg version="1.0" xmlns="http://www.w3.org/2000/svg"
 width="889.000000pt" height="592.000000pt" viewBox="0 0 889.000000 592.000000"
 preserveAspectRatio="xMidYMid meet">

<g transform="translate(0.000000,592.000000) scale(0.100000,-0.100000)"
fill="#000000" stroke="none">
<path d="M7770 5467 c0 -2 15 -14 33 -27 20 -15 27 -17 18 -6 -13 16 -51 41
-51 33z"/>
<path d="M7885 5356 c10 -14 19 -26 22 -26 7 0 -17 39 -28 46 -6 3 -3 -5 6
-20z"/>
<path d="M5053 5204 c-3 -8 -3 -46 -1 -83 20 -270 308 -428 549 -299 53 27
128 93 118 102 -2 2 -60 33 -129 69 -142 74 -294 141 -435 192 -82 30 -97 33
-102 19z"/>
<path d="M7218 5180 c-7 -49 8 -135 35 -194 66 -143 240 -235 393 -207 63 12
144 45 144 60 0 19 -137 134 -239 202 -94 62 -296 169 -319 169 -5 0 -12 -14
-14 -30z"/>
<path d="M4599 5023 c-10 -12 -14 -52 -14 -152 0 -197 -22 -171 379 -453 181
-128 345 -240 365 -250 51 -26 144 -23 197 5 74 40 634 439 629 448 -9 14
-123 99 -229 171 l-98 67 -137 -69 c-140 -70 -172 -95 -221 -176 -24 -38 -38
-54 -52 -54 -4 0 -27 31 -51 68 -25 38 -58 78 -73 89 -54 38 -634 323 -658
323 -13 0 -30 -7 -37 -17z"/>
<path d="M6760 5019 c-7 -13 -10 -70 -8 -158 3 -129 5 -140 29 -177 19 -28
117 -103 357 -272 182 -128 347 -239 366 -247 45 -19 127 -19 172 0 27 11 335
219 376 255 18 15 -97 216 -181 317 l-35 42 -69 -36 c-60 -32 -75 -46 -116
-107 -26 -39 -53 -71 -61 -71 -8 0 -36 32 -62 72 l-48 72 -330 166 c-181 91
-341 165 -354 165 -15 0 -30 -8 -36 -21z"/>
<path d="M8355 5029 c-19 -9 -18 -9 3 -5 14 3 22 -1 22 -9 0 -8 4 -17 10 -20
6 -3 7 1 4 9 -3 9 -1 16 5 16 6 0 12 -17 13 -37 l1 -38 4 35 c3 25 0 38 -13
47 -20 15 -22 15 -49 2z"/>
<path d="M6253 4955 c0 -27 2 -38 4 -22 2 15 2 37 0 50 -2 12 -4 0 -4 -28z"/>
<path d="M6450 4677 c3 -3 29 -7 57 -8 29 -1 50 -6 47 -11 -5 -7 156 -207 260
-323 30 -33 46 -60 47 -80 1 -24 3 -21 9 15 17 104 -34 247 -114 317 -65 57
-135 84 -229 90 -45 3 -80 3 -77 0z"/>
<path d="M6191 4512 c-120 -187 -47 -439 157 -539 51 -25 68 -28 157 -28 83 0
109 4 152 23 93 43 94 47 17 143 -72 91 -425 449 -442 449 -5 0 -24 -22 -41
-48z"/>
<path d="M5682 4188 c-8 -8 -12 -56 -12 -152 0 -128 2 -145 23 -181 18 -32 88
-86 367 -283 189 -133 360 -247 379 -252 51 -14 106 -12 147 5 34 14 424 282
424 291 0 8 -133 220 -176 281 l-45 63 -78 -39 c-80 -41 -122 -79 -162 -150
-32 -58 -52 -54 -100 23 -22 36 -57 75 -78 89 -78 52 -621 317 -649 317 -15 0
-33 -5 -40 -12z"/>
<path d="M7200 4159 c-41 -22 -66 -37 -54 -34 13 3 26 -1 34 -10 7 -8 16 -12
21 -9 5 3 9 -2 9 -10 0 -9 13 -28 30 -42 16 -15 27 -30 25 -35 -3 -4 0 -11 6
-15 8 -5 10 -2 5 7 -4 8 0 5 8 -5 9 -11 16 -16 16 -10 0 5 5 2 10 -6 9 -13 10
-13 11 0 1 8 5 -7 9 -35 5 -36 7 -11 8 86 3 181 -6 188 -138 118z"/>
<path d="M6308 3155 c-122 -33 -218 -110 -266 -213 -24 -51 -27 -69 -27 -167
0 -128 17 -177 84 -244 57 -57 138 -95 315 -146 85 -25 173 -52 196 -61 136
-54 115 -203 -32 -233 -112 -24 -245 11 -374 95 -33 22 -64 42 -70 46 -7 5
-43 -31 -94 -93 l-82 -100 28 -22 c99 -81 224 -141 349 -168 80 -17 257 -17
325 0 214 54 334 214 317 422 -8 91 -39 158 -98 214 -64 60 -136 92 -344 155
-217 66 -245 85 -245 168 0 77 73 118 194 109 80 -5 155 -31 241 -82 32 -20
62 -34 66 -33 4 2 40 49 78 105 l70 102 -44 31 c-71 49 -184 99 -260 115 -85
18 -263 18 -327 0z"/>
<path d="M460 2505 l0 -655 140 0 140 0 0 655 0 655 -140 0 -140 0 0 -655z"/>
<path d="M1297 3153 c-4 -3 -7 -298 -7 -655 l0 -648 140 0 140 0 0 412 c0 330
3 410 13 400 6 -7 147 -191 312 -410 l301 -397 122 -3 122 -3 0 656 0 656
-137 -3 -138 -3 -5 -399 -5 -399 -303 401 -303 402 -123 0 c-67 0 -126 -3
-129 -7z"/>
<path d="M2870 3148 c1 -7 117 -303 258 -658 l257 -645 126 -3 125 -3 259 650
c142 357 258 653 259 658 1 4 -66 9 -147 11 l-148 3 -13 -33 c-8 -18 -82 -220
-166 -448 -84 -228 -156 -421 -159 -428 -4 -7 -74 168 -161 405 -84 230 -161
437 -171 461 l-18 42 -150 0 c-114 0 -151 -3 -151 -12z"/>
<path d="M4587 3153 c-4 -3 -7 -298 -7 -655 l0 -648 495 0 495 0 0 125 0 125
-352 2 -353 3 -3 138 -3 137 306 0 305 0 0 128 0 127 -302 0 -303 0 -3 133 -3
132 351 0 351 0 -3 128 -3 127 -481 3 c-264 1 -484 -1 -487 -5z"/>
<path d="M7360 3025 l0 -135 195 0 195 0 0 -520 0 -521 142 3 143 3 1 130 c1
72 3 304 3 518 l1 387 195 0 195 0 0 135 0 135 -535 0 -535 0 0 -135z"/>
<path d="M7982 1615 c-18 -38 -15 -45 16 -45 20 0 35 9 50 30 12 16 22 32 22
35 0 3 -17 5 -38 5 -32 0 -41 -5 -50 -25z"/>
<path d="M2012 1458 c-16 -35 -108 -237 -205 -449 -98 -212 -177 -389 -177
-393 0 -4 14 -6 31 -4 29 3 34 10 88 128 l57 125 264 0 265 0 57 -125 c56
-125 56 -125 93 -128 32 -3 35 -1 27 15 -5 10 -98 215 -208 455 l-199 438 -32
0 c-30 0 -35 -4 -61 -62z m176 -267 c62 -137 112 -254 112 -260 0 -8 -70 -11
-231 -11 -215 0 -231 1 -227 18 8 30 223 502 229 502 3 0 56 -112 117 -249z"/>
<path d="M4936 1488 c-7 -18 -100 -221 -205 -450 -105 -229 -191 -420 -191
-423 0 -4 14 -5 32 -3 31 3 34 8 88 128 l56 125 261 3 c201 2 263 -1 270 -10
6 -7 34 -66 63 -130 52 -118 52 -118 87 -118 19 0 33 4 31 8 -1 5 -95 210
-208 455 l-204 447 -33 0 c-27 0 -35 -5 -47 -32z m166 -303 c64 -140 113 -257
110 -260 -3 -3 -108 -5 -234 -5 -197 0 -229 2 -226 15 5 26 223 504 229 505 3
0 58 -115 121 -255z"/>
<path d="M7921 1458 c-16 -35 -108 -236 -205 -447 -97 -211 -176 -388 -176
-393 0 -5 14 -8 30 -6 29 3 34 11 84 121 29 65 57 122 63 128 6 6 112 8 268 7
l259 -3 56 -125 c57 -125 57 -125 93 -128 l37 -3 -45 98 c-394 861 -368 808
-403 811 -31 3 -34 1 -61 -60z m173 -261 c60 -133 111 -250 114 -259 4 -17
-12 -18 -227 -18 -178 0 -231 3 -231 13 0 15 223 507 230 507 3 0 54 -109 114
-243z"/>
<path d="M460 1060 l0 -451 33 3 32 3 2 165 2 165 173 6 c187 7 219 13 290 58
114 72 155 211 101 341 -20 50 -77 105 -137 132 -48 21 -66 23 -273 26 l-223
3 0 -451z m455 371 c96 -43 135 -99 135 -196 0 -67 -24 -119 -74 -163 -56 -49
-117 -62 -293 -62 l-153 0 0 226 0 227 168 -5 c145 -4 174 -7 217 -27z"/>
<path d="M3200 1060 l0 -450 30 0 30 0 2 188 3 187 146 3 146 3 144 -191 c142
-187 145 -190 182 -190 20 0 37 2 37 5 0 3 -63 87 -140 188 -77 100 -140 184
-140 187 0 3 25 14 56 23 83 26 137 68 168 129 53 106 24 241 -67 308 -72 53
-116 60 -369 60 l-228 0 0 -450z m490 380 c117 -43 170 -159 121 -265 -23 -50
-53 -78 -112 -104 -40 -18 -68 -20 -240 -21 l-194 -2 -3 193 c-1 107 0 200 3
207 4 12 39 14 198 10 118 -3 205 -10 227 -18z"/>
<path d="M6110 1060 l0 -450 30 0 30 0 2 402 3 403 315 -402 c246 -314 320
-402 338 -403 l22 0 0 450 0 450 -30 0 -30 0 -2 -388 -3 -389 -305 389 c-290
370 -306 388 -337 388 l-33 0 0 -450z"/>
</g>
</svg>
