<?xml version="1.0" standalone="no"?>
<!DOCTYPE svg PUBLIC "-//W3C//DTD SVG 20010904//EN"
 "http://www.w3.org/TR/2001/REC-SVG-20010904/DTD/svg10.dtd">
<svg version="1.0" xmlns="http://www.w3.org/2000/svg"
 width="908.000000pt" height="825.000000pt" viewBox="0 0 908.000000 825.000000"
 preserveAspectRatio="xMidYMid meet">

<g transform="translate(0.000000,825.000000) scale(0.100000,-0.100000)"
fill="#000000" stroke="none">
<path d="M4505 8230 c-3 -6 -215 -630 -469 -1388 -957 -2844 -979 -2914 -1115
-3398 -28 -99 -51 -190 -51 -202 0 -14 8 -24 23 -27 12 -3 215 -4 451 -3 l429
3 18 25 c18 23 92 227 330 910 118 336 235 705 314 990 32 113 60 213 62 222
7 23 29 12 41 -20 6 -15 40 -126 76 -247 36 -121 105 -339 155 -485 137 -408
482 -1363 497 -1381 11 -12 44 -17 152 -22 75 -4 193 -14 262 -22 126 -15 268
-9 375 15 22 5 68 10 103 10 49 0 64 4 69 16 7 18 -35 169 -118 429 -413 1301
-1360 4055 -1551 4513 -29 70 -40 83 -53 62z"/>
<path d="M8345 7995 c-82 -7 -196 -14 -252 -14 -95 -1 -104 -3 -117 -23 -8
-13 -222 -653 -476 -1423 -254 -770 -551 -1670 -660 -2000 -230 -694 -390
-1217 -390 -1274 0 -26 5 -41 16 -45 9 -3 223 -6 477 -6 513 0 512 0 569 68
20 24 211 586 797 2344 424 1272 771 2321 771 2330 0 22 -9 23 -185 37 -233
18 -392 20 -550 6z"/>
<path d="M7 7973 c-4 -3 -7 -15 -7 -26 0 -11 302 -929 671 -2041 369 -1112
718 -2165 776 -2340 59 -177 114 -327 124 -337 18 -18 46 -19 553 -19 l535 0
-5 38 c-3 20 -60 210 -127 422 -140 444 -1397 4212 -1420 4257 -9 16 -27 34
-42 41 -19 9 -162 12 -539 12 -282 0 -516 -3 -519 -7z"/>
<path d="M1726 2783 c57 -241 731 -2269 894 -2691 18 -46 36 -80 40 -75 6 6
687 1930 971 2741 l18 52 -965 0 -964 0 6 -27z"/>
<path d="M5413 2798 c12 -34 972 -2719 984 -2755 8 -24 21 -43 28 -43 9 0 173
480 479 1398 256 768 466 1400 466 1405 0 4 -441 7 -981 7 -781 0 -980 -3
-976 -12z"/>
</g>
</svg>
